<svg xmlns="http://www.w3.org/2000/svg" viewBox="0 0 512 512"><rect y="68.27" width="512" height="375.47" rx="10.92"/><rect x="23.21" y="102.4" width="61.44" height="4.1" rx="2.05" style="fill:#fff"/><rect x="23.21" y="131.75" width="61.44" height="5.46" rx="2.36" style="fill:#fff"/><rect x="23.21" y="163.16" width="61.44" height="5.46" rx="2.36" style="fill:#fff"/><rect x="23.21" y="196.61" width="61.44" height="6.83" rx="2.64" style="fill:#fff"/><rect x="23.21" y="247.13" width="61.44" height="9.56" rx="3.13" style="fill:#fff"/><rect x="23.21" y="382.29" width="61.44" height="9.56" rx="3.13" style="fill:#fff"/><rect x="23.21" y="307.88" width="61.44" height="16.38" rx="4.1" style="fill:#fff"/><rect x="102.4" y="256.68" width="61.44" height="16.38" rx="4.1" style="fill:#fff"/><rect x="96.94" y="146.09" width="61.44" height="16.38" rx="4.1" style="fill:#fff"/><rect x="173.4" y="125.61" width="61.44" height="16.38" rx="4.1" style="fill:#fff"/><rect x="382.29" y="121.51" width="61.44" height="16.38" rx="4.1" style="fill:#fff"/><rect x="247.13" y="211.63" width="61.44" height="16.38" rx="4.1" style="fill:#fff"/><rect x="309.93" y="268.97" width="61.44" height="16.38" rx="4.1" style="fill:#fff"/><rect x="394.58" y="352.26" width="61.44" height="16.38" rx="4.1" style="fill:#fff"/></svg>