<svg xmlns="http://www.w3.org/2000/svg" viewBox="0 0 512 512"><path d="M235.91,315c0,36.45-19.81,64.19-61.82,64.19-11.35,0-15.58-2.64-15.58,3.17v29.85c0,18.23,14.26,12.15,14.26,22.45,0,2.91-2.11,5.81-6.6,5.81-5,0-11.36-.79-22.45-.79-10,0-15.06.79-19.82.79-4.49,0-6.34-2.9-6.34-5.81,0-9.51,11.1-4.22,11.1-22.19V279.31c0-18-11.1-12.68-11.1-22.19,0-3.17,2.65-5.81,7.14-5.81s9,.79,18.75.79c7.93,0,18.76-1.32,28.27-1.32C213.45,250.78,235.91,276.4,235.91,315Zm-32.49.79c0-30.38-12.16-49.13-31.7-49.13-13.21,0-13.21,9.24-13.21,14.79V352c0,8.19,3.7,10.83,12.15,10.83C193.11,362.78,203.42,343.23,203.42,315.76Z"/><path d="M338.67,317.61c0,5-2.38,13.47-6.08,24.57-1.58,4.49-3.43,7.13-6.87,7.13s-5-2.38-6.87-7.4c-3.17-8.45-6.07-10.56-9.77-10.56-9.77,0-21.93,18.22-21.93,54.15v25.36c0,20.87,13.21,14.53,13.21,23.77a5.74,5.74,0,0,1-6.07,5.81c-4.76,0-10.57-.79-20.87-.79-9,0-14,.79-18.49.79a5.75,5.75,0,0,1-6.08-5.81c0-8.45,11.1-2.9,11.1-23.77V347.2c0-16.12-12.42-9-12.42-18.5,0-4.49,4.23-7.13,17.7-14.52,12.42-6.87,14-7.4,16.38-7.4,5,0,5.54,5.28,5.54,10v23.51c6.08-20.08,19.55-34.61,35.4-34.61C331.27,305.72,338.67,310.48,338.67,317.61Z"/><path d="M474.29,512H37.7V0H474.29ZM57.55,492.16h396.9V19.85H57.55Z"/></svg>