<svg xmlns="http://www.w3.org/2000/svg" viewBox="0 0 512 512"><rect y="68.27" width="512" height="375.47" rx="10.92"/><path d="M413.57,138.25a4.77,4.77,0,0,1-.66.05l-117.06,2.32c-18.71,1.26-34.49,6.83-46.88,16.54-20.74,16.23-28,40.13-41.31,88.34-3.17,11.47-5.33,21.38-7.24,30.12-4.93,22.66-8.52,39-24,53.51-10.91,10.17-25,16.95-41.88,20.18a5.93,5.93,0,0,1-1.17.11,6.21,6.21,0,0,1-1.16-12.31c14.54-2.78,26.57-8.52,35.73-17.06C180.6,308.23,183.5,295,188.3,273c1.94-8.9,4.13-19,7.37-30.77,12.5-45.37,20.74-75.35,45.63-94.83,14.44-11.3,32.55-17.75,53.88-19.16l.28,0,117.21-2.32h.12a4,4,0,0,1,.78.06Z" style="fill:#fff"/><path d="M413.57,145.42v12.42l-68,1.29c-18.79,1.19-34.61,6.49-47,15.71-20.66,15.37-27.95,38-41.2,83.63-3.15,10.85-5.31,20.24-7.21,28.53-5,21.58-8.56,37.18-24.13,50.95-10.9,9.64-25,16.08-41.82,19.14a6.89,6.89,0,0,1-1.1.09,6.21,6.21,0,0,1-1.1-12.32c14.57-2.64,26.62-8.09,35.79-16.21C230.32,317.52,233.21,305,238,284.22c1.94-8.45,4.15-18,7.39-29.22,12.51-43.11,20.77-71.59,45.73-90.13,14.41-10.69,32.5-16.81,53.76-18.15h.27Z" style="fill:#fff"/><path d="M413.57,163.49v12.42l-6,.11c-18.86,1.1-34.74,5.94-47.19,14.42-20.59,14-27.84,34.6-41,76.21-3.13,9.9-5.29,18.48-7.2,26-5,19.89-8.6,34.25-24.3,46.95-10.88,8.8-24.91,14.67-41.71,17.46a7,7,0,0,1-1,.08,6.21,6.21,0,0,1-1-12.34c14.64-2.42,26.72-7.42,35.91-14.86,12.48-10.09,15.34-21.47,20.09-40.31,1.94-7.75,4.14-16.52,7.4-26.78,12.55-39.57,20.85-65.7,45.89-82.73,14.38-9.76,32.4-15.33,53.59-16.55h.25Z" style="fill:#fff"/><line x1="413.57" y1="138.25" x2="413.57" y2="125.94" style="fill:none;stroke:#fff;stroke-miterlimit:10;stroke-width:1.5523810169056134px"/><path d="M99.21,132.86A6.21,6.21,0,0,1,93,126.65v-.77a6.21,6.21,0,0,1,12.42,0v.77A6.21,6.21,0,0,1,99.21,132.86Z" style="fill:#fff"/><path d="M99.21,359.63A6.21,6.21,0,0,1,93,353.42V352a6.21,6.21,0,0,1,12.42,0v1.47A6.21,6.21,0,0,1,99.21,359.63Zm0-32.39A6.21,6.21,0,0,1,93,321v-1.47a6.21,6.21,0,0,1,12.42,0V321A6.21,6.21,0,0,1,99.21,327.24Zm0-32.4A6.21,6.21,0,0,1,93,288.63v-1.47a6.21,6.21,0,0,1,12.42,0v1.47A6.21,6.21,0,0,1,99.21,294.84Zm0-32.39A6.21,6.21,0,0,1,93,256.24v-1.48a6.21,6.21,0,0,1,12.42,0v1.48A6.21,6.21,0,0,1,99.21,262.45Zm0-32.4A6.21,6.21,0,0,1,93,223.84v-1.47a6.21,6.21,0,0,1,12.42,0v1.47A6.21,6.21,0,0,1,99.21,230.05Zm0-32.4A6.21,6.21,0,0,1,93,191.44V190a6.21,6.21,0,0,1,12.42,0v1.47A6.21,6.21,0,0,1,99.21,197.65Zm0-32.39A6.21,6.21,0,0,1,93,159.05v-1.47a6.21,6.21,0,0,1,12.42,0v1.47A6.21,6.21,0,0,1,99.21,165.26Z" style="fill:#fff"/><path d="M99.21,391.33A6.21,6.21,0,0,1,93,385.12v-.77a6.21,6.21,0,0,1,12.42,0v.77A6.21,6.21,0,0,1,99.21,391.33Z" style="fill:#fff"/><path d="M412.79,391.33H412a6.21,6.21,0,0,1,0-12.42h.78a6.21,6.21,0,0,1,0,12.42Z" style="fill:#fff"/><path d="M378.75,391.33h-1.58a6.21,6.21,0,0,1,0-12.42h1.58a6.21,6.21,0,0,1,0,12.42Zm-34.84,0h-1.59a6.21,6.21,0,0,1,0-12.42h1.59a6.21,6.21,0,0,1,0,12.42Zm-34.85,0h-1.58a6.21,6.21,0,0,1,0-12.42h1.58a6.21,6.21,0,0,1,0,12.42Zm-34.85,0h-1.58a6.21,6.21,0,0,1,0-12.42h1.58a6.21,6.21,0,1,1,0,12.42Zm-34.84,0h-1.58a6.21,6.21,0,0,1,0-12.42h1.58a6.21,6.21,0,1,1,0,12.42Zm-34.85,0h-1.58a6.21,6.21,0,0,1,0-12.42h1.58a6.21,6.21,0,0,1,0,12.42Zm-34.84,0h-1.59a6.21,6.21,0,0,1,0-12.42h1.59a6.21,6.21,0,0,1,0,12.42Zm-34.85,0h-1.58a6.21,6.21,0,0,1,0-12.42h1.58a6.21,6.21,0,0,1,0,12.42Z" style="fill:#fff"/><path d="M100,391.33h-.78a6.21,6.21,0,0,1,0-12.42H100a6.21,6.21,0,1,1,0,12.42Z" style="fill:#fff"/></svg>