<?xml version="1.0" encoding="utf-8"?>
<!-- Generator: Adobe Illustrator 25.0.0, SVG Export Plug-In . SVG Version: 6.00 Build 0)  -->
<svg version="1.1" id="Layer_1" xmlns="http://www.w3.org/2000/svg" xmlns:xlink="http://www.w3.org/1999/xlink" x="0px" y="0px"
	 viewBox="0 0 512 105" style="enable-background:new 0 0 512 105;" xml:space="preserve">
<style type="text/css">
	.st0{fill:#210700;}
</style>
<path class="st0" d="M60.4,38.8c0,18.6-10.1,32.8-31.5,32.8c-5.8,0-8-1.3-8,1.6v15.2c0,9.3,7.3,6.2,7.3,11.5c0,1.5-1.1,3-3.4,3
	c-2.6,0-5.8-0.4-11.5-0.4c-5.1,0-7.7,0.4-10.1,0.4c-1.6,0.2-3-0.9-3.2-2.5c0-0.2,0-0.3,0-0.5c0-4.9,5.7-2.2,5.7-11.3v-68
	C5.7,11.5,0,14.2,0,9.3c0-1.6,1.4-3,3.6-3s4.6,0.4,9.6,0.4c4.1,0,9.6-0.7,14.4-0.7C49,6.1,60.4,19.1,60.4,38.8z M43.8,39.2
	c0-15.5-6.2-25.1-16.2-25.1c-6.7,0-6.7,4.7-6.7,7.6v36c0,4.2,1.9,5.5,6.2,5.5C38.6,63.2,43.8,53.3,43.8,39.2z"/>
<path class="st0" d="M112.9,40.2c0,2.6-1.2,6.9-3.1,12.5c-0.8,2.3-1.8,3.6-3.5,3.6s-2.6-1.2-3.5-3.8c-1.6-4.3-3.1-5.4-5-5.4
	c-5,0-11.2,9.3-11.2,27.6v12.9c0,10.7,6.7,7.4,6.7,12.1c0,1.6-1.2,3-2.9,3c-0.1,0-0.2,0-0.2,0c-2.4,0-5.4-0.4-10.7-0.4
	c-4.6,0-7.2,0.4-9.4,0.4c-1.6,0.1-3-1.1-3.1-2.8c0-0.1,0-0.2,0-0.2c0-4.3,5.7-1.5,5.7-12.1V55.3c0-8.2-6.3-4.6-6.3-9.4
	c0-2.3,2.2-3.6,9-7.4c6.3-3.5,7.1-3.8,8.4-3.8c2.6,0,2.8,2.7,2.8,5.1v12c3.1-10.2,10-17.7,18.1-17.7
	C109.1,34.1,112.9,36.5,112.9,40.2z"/>
<path class="st0" d="M166.7,88.2c0,1.3-0.3,2.6-0.9,3.8c-3.4,7.4-11.6,13-21.4,13c-15.5,0-28-12.8-28-37.2
	c0-19.8,10.9-34.8,26.4-34.8c12.8,0,22.7,11.7,22.7,27.8c0,2.8-1.1,4.3-3.6,5.1L132,74.1c2.6,12.8,8.9,20.6,16.9,20.6
	c4.6,0,8.9-2.7,12.4-7.6c1.4-1.6,1.9-2,3.1-2S166.7,86.2,166.7,88.2z M130.4,60c0,2.3,0.1,4.6,0.3,6.8l16.4-4.8
	c2.6-0.8,4.2-1.6,4.2-4.5c0-8.9-5-16.3-10.6-16.3C133.1,41.3,130.4,50,130.4,60z"/>
<path class="st0" d="M178.9,99.8l-3.1-8.6c-1.8-5.2-2.8-7.4-2.8-8.8c-0.1-1.6,1.2-3,2.8-3.1c0.1,0,0.2,0,0.2,0
	c1.6,0,2.6,0.9,3.9,2.8c6.1,8.2,11.9,14.6,19.8,14.6c6.2,0,9.4-3.9,9.4-8.2c0-6.5-4.4-10-14.3-13.9c-10.2-4.3-20.2-10.1-20.2-22.1
	c0-10.2,7.6-18.3,18.9-18.3c5.3,0,8.6,2.4,10.2,2.4c1.9,0,2.2-2.7,4.9-2.7c1.9,0,2.8,1.3,4.3,4.6l3.6,7.6c1.1,2.3,2.4,5.8,2.4,7
	c0.1,1.4-1,2.6-2.4,2.7c-0.1,0-0.3,0-0.4,0c-1.6,0-2.8-1.1-4.2-2.6c-5.7-6.5-11.5-11.6-17.3-11.6c-4.7,0-7.6,3.1-7.6,6.9
	c0,5.8,4.2,8.4,14,12.7c11.2,4.7,20.8,10.4,20.8,22.6c0,12.5-8.8,20.2-21.6,20.2c-6.5,0-10.2-2.8-12.1-2.8c-2.4,0-2.3,3.4-5.1,3.4
	C181,104.5,179.9,102.6,178.9,99.8z"/>
<path class="st0" d="M279.4,88.2c0,1.3-0.3,2.6-0.9,3.8c-3.4,7.4-11.6,13-21.5,13c-15.5,0-28-12.8-28-37.2C229,48,239.9,33,255.4,33
	c12.8,0,22.7,11.7,22.7,27.8c0,2.8-1.1,4.3-3.6,5.1l-29.9,8.2c2.5,12.9,8.9,20.7,16.9,20.7c4.6,0,8.9-2.7,12.4-7.6
	c1.4-1.6,1.9-2,3.1-2S279.4,86.2,279.4,88.2z M243.1,60c0,2.3,0.1,4.6,0.3,6.8l16.4-4.8c2.6-0.8,4.2-1.6,4.2-4.5
	c0-8.9-5-16.3-10.6-16.3C245.8,41.3,243.1,50,243.1,60z"/>
<path class="st0" d="M343.7,96.3c0,2.7-4.2,7.3-10.9,7.3c-4.5,0-8.9-2.8-11.1-8.6c-3.8,5.8-10.3,9.2-17.2,9c-11.1,0-19-8.6-19-20.2
	s8.2-21.3,21.9-21.3c3.7-0.1,7.4,0.8,10.8,2.4L318,63c-0.5-6.7-2-18.7-11.3-18.7c-3.9,0-7.3,2.3-10.8,5.9c-1.9,1.6-3,2-3.9,2
	c-1.6,0.1-2.9-1.2-3-2.8c0-0.1,0-0.1,0-0.2c0.2-1.9,1-3.6,2.3-5c4.7-6.4,12.1-10.2,20.1-10.1c15,0,18.7,12.3,20,24.7l2.4,22.9
	c0.8,7.4,1.3,10.5,8.1,12.3C343,94.1,343.8,95.1,343.7,96.3z M320.4,87.5l-1.5-15.1c-2.5-1.6-5.5-2.5-8.5-2.6
	c-6.3,0-10.8,4.3-10.8,12.3c0,7.6,4,12.9,9.6,12.9C314.1,94.9,318.4,92,320.4,87.5L320.4,87.5z"/>
<path class="st0" d="M393.5,40.2c0,2.6-1.2,6.9-3.1,12.5c-0.8,2.3-1.8,3.6-3.5,3.6s-2.6-1.2-3.5-3.8c-1.6-4.3-3.1-5.4-5-5.4
	c-5,0-11.2,9.3-11.2,27.6v12.9c0,10.7,6.7,7.4,6.7,12.1c0,1.6-1.2,3-2.9,3c-0.1,0-0.2,0-0.2,0c-2.4,0-5.4-0.4-10.6-0.4
	c-4.6,0-7.1,0.4-9.4,0.4c-1.6,0.1-3-1.1-3.1-2.8c0-0.1,0-0.2,0-0.2c0-4.3,5.7-1.5,5.7-12.1V55.3c0-8.2-6.3-4.6-6.3-9.4
	c0-2.3,2.2-3.6,9-7.4c6.3-3.5,7.1-3.8,8.4-3.8c2.6,0,2.8,2.7,2.8,5.1v12c3.1-10.2,10-17.7,18.1-17.7
	C389.7,34.1,393.5,36.5,393.5,40.2z"/>
<path class="st0" d="M397,70.2c0-22.2,12-37.1,28-37.1c11.2,0,19,7.5,19,13.2c0,3-0.8,6.2-5.1,11.2c-1.3,1.5-2.3,1.9-3.2,1.9
	c-1.6,0-2.8-0.8-3.2-3.5c-1.4-11.3-4.3-15.6-9.4-15.6c-7.3,0-11.6,9.7-11.6,23.2c0,20.2,7.7,31,16.6,31c5.1,0,9.3-2.8,12.3-8.1
	c0.6-1.2,1.8-2,3.1-2c1.6,0,2.4,1.3,2.4,2.8c0,1.3-0.3,2.7-0.8,3.9c-2.7,7-10,13.9-21.4,13.9C408.2,105,397,92.5,397,70.2z"/>
<path class="st0" d="M512,99.9c0,1.9-1.4,3-3.4,3c-2.6,0-4.6-0.4-9.6-0.4s-7,0.4-9.6,0.4s-3.5-1.3-3.5-3.1c0-4,5.5-1.9,5.5-10
	c0-0.8-0.1-3-0.3-4.6L489,63.1c-1-9.6-2.2-17-8.2-17c-5.8,0-9.8,6.3-9.8,18.2v23.4c0,10.7,5.8,7.8,5.8,12.1c0,1.7-1.3,3-3,3h-0.1
	c-2.3,0-4.9-0.4-9.6-0.4s-7.3,0.4-9.6,0.4c-1.7,0.1-3.1-1.1-3.2-2.8c0-0.1,0-0.2,0-0.2c0-4.3,5.8-1.5,5.8-12.1v-67
	c0-8.4-6.5-4.6-6.5-9.4c0-2.3,2.2-3.6,9.2-7.4c6.5-3.6,7.3-3.9,8.4-3.9c2.4,0,2.8,2.3,2.8,5.1v41.1c3.4-7.4,8.8-12.1,16-12.1
	c12.4,0,15,14.2,15.8,22.8l2.6,29.4C506.6,99,512,95.3,512,99.9z"/>
</svg>
